<?xml version="1.0" encoding="UTF-8" standalone="no"?>
<svg
   id="Layer_1"
   data-name="Layer 1"
   viewBox="0 0 980 978.94"
   version="1.1"
   sodipodi:docname="pokeball_light.svg"
   inkscape:version="1.3.1 (91b66b0783, 2023-11-16)"
   xmlns:inkscape="http://www.inkscape.org/namespaces/inkscape"
   xmlns:sodipodi="http://sodipodi.sourceforge.net/DTD/sodipodi-0.dtd"
   xmlns="http://www.w3.org/2000/svg"
   xmlns:svg="http://www.w3.org/2000/svg"
   xmlns:rdf="http://www.w3.org/1999/02/22-rdf-syntax-ns#"
   xmlns:cc="http://creativecommons.org/ns#"
   xmlns:dc="http://purl.org/dc/elements/1.1/">
  <defs
     id="defs1" />
  <sodipodi:namedview
     id="namedview1"
     pagecolor="#ffffff"
     bordercolor="#000000"
     borderopacity="0.25"
     inkscape:showpageshadow="2"
     inkscape:pageopacity="0.0"
     inkscape:pagecheckerboard="0"
     inkscape:deskcolor="#d1d1d1"
     inkscape:zoom="0.83049012"
     inkscape:cx="489.47"
     inkscape:cy="489.47"
     inkscape:window-width="1920"
     inkscape:window-height="1009"
     inkscape:window-x="-8"
     inkscape:window-y="-8"
     inkscape:window-maximized="1"
     inkscape:current-layer="Layer_1" />
  <title
     id="title1">2</title>
  <path
     d="M 356.81378,960.84834 320.67363,949.1057 c -1.10805,-1.41149 -2.82422,-1.69573 -4.35923,-2.2786 C 275.75241,931.63942 237.65587,911.7116 203.00472,885.7428 75.188532,789.9889 7.7915786,662.02931 0.30535956,502.78181 -1.6653916,460.62975 3.2011112,418.92227 12.913651,377.80099 c 1.565874,-6.5991 4.151748,-12.97193 4.593005,-19.83129 l 13.287731,-40.89544 a 58.81,58.81 0 0 0 2.65728,-5.29816 461,461 0 0 1 49.856007,-95.64484 Q 177.72507,77.639576 336.82874,24.546767 C 416.30046,-1.9310389 497.4787,-6.8987177 579.84411,8.2973416 a 479.9,479.9 0 0 1 99.34124,29.8069894 c 34.78014,14.633888 67.75664,32.456487 97.99854,54.973826 Q 953.75648,224.52558 977.76292,443.3437 c 5.8092,52.89396 1.68243,105.39847 -10.50701,157.24949 -1.58679,6.76054 -4.21568,13.29814 -4.70638,20.30968 l -12.97872,39.94437 c -0.93425,1.90452 -2.03969,3.75341 -2.78682,5.72923 a 464.49,464.49 0 0 1 -49.7961,95.62225 q -87.45652,128.97703 -233.14138,184.68445 -139.9893,53.22603 -286.21566,18.85745 c -6.93792,-1.62339 -13.60344,-4.44106 -20.81707,-4.89228 z M 183.35482,422.65555 92.05339,392.98991 c -6.980755,-2.26818 -6.990265,-2.27127 -8.509005,5.12123 A 455.59,455.59 0 0 0 75.742308,446.7823 Q 61.152314,598.15232 146.50892,724.10345 c 46.43446,68.50175 108.52373,118.40061 185.19483,149.98935 44.74202,18.43849 91.27979,29.7322 139.59764,30.98453 142.01558,3.73819 257.94178,-49.9882 347.47697,-160.08902 22.63045,-27.83937 40.06848,-58.9851 54.37845,-91.86219 1.38304,-3.18868 2.69601,-5.61154 -2.49034,-7.28617 Q 777.37022,615.8416 684.25939,585.27262 c -3.25261,-1.05684 -4.83151,-0.33965 -6.25833,2.49834 -2.09364,4.14595 -4.28881,8.2484 -6.72864,12.19774 C 611.21693,697.1678 487.18257,729.66983 386.91769,674.42228 310.2765,632.19194 267.30011,545.57203 280.10211,459.02201 c 0.51141,-3.45087 -0.23552,-5.19715 -3.95082,-6.3833 -31.01203,-9.82407 -61.89665,-19.9432 -92.79647,-29.98316 z m 166.95462,21.31505 c -24.88108,76.70555 17.59244,159.98666 94.38074,184.93669 76.78831,24.95004 160.0768,-17.3844 185.06868,-94.07499 24.99188,-76.69058 -17.49328,-159.83878 -94.4309,-184.87939 -76.93762,-25.04061 -160.14361,17.33115 -185.01852,94.01769 z"
     id="path1"
     style="fill:#000000" />
  <metadata
     id="metadata1">
    <rdf:RDF>
      <cc:Work
         rdf:about="">
        <dc:title>2</dc:title>
      </cc:Work>
    </rdf:RDF>
  </metadata>
</svg>
